<?xml version="1.0" encoding="utf-8"?>
<!-- Generator: Adobe Illustrator 28.0.0, SVG Export Plug-In . SVG Version: 6.00 Build 0)  -->
<svg version="1.1" id="Layer_1" xmlns="http://www.w3.org/2000/svg" xmlns:xlink="http://www.w3.org/1999/xlink" x="0px" y="0px"
	 viewBox="0 0 189.3 50" style="enable-background:new 0 0 189.3 50;" xml:space="preserve">
<style type="text/css">
	.st0{fill:#FFFFFF;}
	.st1{fill:#231F20;}
</style>
<g>
	<path class="st0" d="M49.3,47.9c5.6,0,11-5.4,11-10.9s0-37,0-37H43.6v29.7c0,1.2-1.3,3.6-3.6,3.6H20.4c-2.3,0-3.6-2.4-3.6-3.6V0H0
		c0,0,0,35.8,0,37c0,5.5,5.3,10.9,11,10.9H49.3z"/>
	<path class="st0" d="M102.3,0H83.1L56.8,47.9h19.5l3.6-7.5h25.5l3.6,7.5h19.5L102.2,0H102.3z M86.4,27.3l6.3-13l6.3,13H86.4
		L86.4,27.3z"/>
	<path class="st0" d="M129.7,0.1h43c9.8,0,14.1,4.3,14.1,11.9s-2.1,7.9-5.7,9.3l0,0c6.2,1.7,8.2,7.5,8.2,11.1
		c0,9.4-4.7,15.5-18.7,15.5h-40.9V0.1z M148.2,17.9h14.3c3.8,0,4.7-1.3,4.7-3.1s-0.9-3-4.7-3h-14.3V17.9L148.2,17.9z M148.2,36.3
		h16.1c3.8,0,4.9-1.6,4.9-3.8s-1.1-3.8-4.9-3.8h-16.1V36.3L148.2,36.3z"/>
</g>
<path class="st1" d="M300.8,99.5c0.2,0,0.3,0.1,0.3,0.3s-0.1,0.3-0.3,0.3s-0.3-0.1-0.3-0.3S300.6,99.5,300.8,99.5z M300.8,100.1
	c0.1,0,0.2-0.1,0.2-0.2s-0.1-0.2-0.2-0.2s-0.2,0.1-0.2,0.2S300.7,100.1,300.8,100.1z M300.7,100L300.7,100v-0.3h0.1h0.1l0,0l0,0
	c0,0.1,0,0.1,0,0.1l0,0c0-0.1,0-0.1,0-0.1l0,0L300.7,100z M300.7,99.8L300.7,99.8L300.7,99.8L300.7,99.8L300.7,99.8z"/>
</svg>
